<?xml version="1.0" encoding="utf-8"?>
<svg version="1.1" xmlns="http://www.w3.org/2000/svg" xmlns:xlink="http://www.w3.org/1999/xlink" x="0px" y="0px"
	 viewBox="0 0 100 100" xml:space="preserve">
<g>
	<polygon points="2.3,63 7,63 7,63.7 5.1,63.7 5.1,68.6 4.1,68.6 4.1,63.7 2.3,63.7 	"/>
	<polygon points="12.5,66 9.8,66 9.8,68.6 8.9,68.6 8.9,63 9.8,63 9.8,65.3 12.5,65.3 12.5,63 13.4,63 13.4,68.6 12.5,68.6 	"/>
	<polygon points="19.4,68.6 16,68.6 16,63 19.3,63 19.3,63.7 16.9,63.7 16.9,65.3 18.7,65.3 18.7,66 16.9,66 16.9,67.8 19.4,67.8 	
		"/>
	<path d="M30,66.7c0,0.8-0.4,2-2.3,2c-1.5,0-2.3-0.7-2.3-2V63h1v3.7c0,0.9,0.5,1.3,1.3,1.3c0.9,0,1.3-0.6,1.3-1.3V63H30V66.7z"/>
	<polygon points="37.5,63 37.5,68.6 36.6,68.6 33.5,64.5 33.5,68.6 32.5,68.6 32.5,63 33.4,63 36.6,67 36.6,63 	"/>
	<rect x="40.1" y="63" width="1" height="5.6"/>
	<polygon points="45.4,68.6 44.9,68.6 43,63 44,63 45.2,66.8 46.6,63 47.5,63 	"/>
	<polygon points="52.9,68.6 49.4,68.6 49.4,63 52.8,63 52.8,63.7 50.4,63.7 50.4,65.3 52.1,65.3 52.1,66 50.4,66 50.4,67.8 
		52.9,67.8 	"/>
	<path d="M58.3,68.7l-1.5-2.6h-0.6v2.5h-1V63h1.7c1.4,0,1.9,0.8,1.9,1.4c0,0.8-0.6,1.3-1.1,1.5l1.7,2.7L58.3,68.7z M56.6,65.4
		c0.8,0,1.2-0.4,1.2-0.9c0-0.5-0.4-0.8-1.2-0.8h-0.4v1.7H56.6z"/>
	<path d="M62.6,68c0.5,0,1-0.3,1-0.7c0-0.5-0.6-0.7-1.2-1.1c-0.6-0.3-1.4-0.8-1.4-1.8c0-0.8,0.7-1.5,1.8-1.5c0.7,0,1.2,0.2,1.5,0.3
		L64,63.8c-0.3-0.1-0.7-0.2-1.3-0.2c-0.6,0-0.9,0.4-0.9,0.7c0,0.5,0.6,0.8,1.2,1.1c0.5,0.3,1.6,0.7,1.6,1.7c0,1.1-1.3,1.6-1.9,1.6
		c-0.9,0-1.5-0.3-1.8-0.5l0.3-0.6C61.4,67.7,61.9,68,62.6,68"/>
	<rect x="66.7" y="63" width="1" height="5.6"/>
	<polygon points="69.6,63 74.3,63 74.3,63.7 72.5,63.7 72.5,68.6 71.5,68.6 71.5,63.7 69.6,63.7 	"/>
	<polygon points="80.7,63 78.9,65.9 78.9,68.6 77.9,68.6 77.9,65.9 76,63 77,63 78.4,65.2 79.8,63 	"/>
	<path d="M92.1,65.8c0,1.8-1.3,2.9-2.9,2.9c-1.7,0-2.9-1.1-2.9-2.9c0-1.7,1.2-2.9,2.9-2.9C90.9,62.9,92.1,64,92.1,65.8 M87.3,65.8
		c0,1.3,0.7,2.2,1.8,2.2c1.1,0,1.8-0.9,1.8-2.2c0-1.3-0.7-2.2-1.8-2.2C88,63.6,87.3,64.5,87.3,65.8"/>
	<polygon points="94.3,68.6 94.3,63 97.5,63 97.5,63.7 95.3,63.7 95.3,65.3 96.9,65.3 96.9,66 95.3,66 95.3,68.6 	"/>
	<polygon points="13.1,73.7 13.1,85.2 11.2,85.2 4.6,76.9 4.6,85.2 2.6,85.2 2.6,73.7 4.5,73.7 11.2,82 11.2,73.7 	"/>
	<polygon points="23.1,85.2 15.9,85.2 15.9,73.7 22.9,73.7 22.9,75.1 17.9,75.1 17.9,78.5 21.6,78.5 21.6,80 17.9,80 17.9,83.7 
		23.1,83.7 	"/>
	<polygon points="29.2,85.3 28.1,85.3 24.2,73.7 26.3,73.7 29,81.8 30.7,77 29.6,73.7 31.7,73.7 34.3,81.6 37.1,73.7 39,73.7 
		34.6,85.3 33.5,85.3 31.5,79.3 	"/>
	<path d="M49.8,84.5c-0.8,0.5-1.9,1-4.2,1c-4.1,0-6.2-3.1-6.2-6c0-3,2.2-6,6.2-6c2.3,0,3.5,0.7,4,0.9L49,75.7
		c-0.4-0.2-1.4-0.8-3.3-0.8c-2.5,0-4,1.9-4,4.5c0,2.6,1.6,4.5,4.2,4.5c1.8,0,2.8-0.5,3.3-0.8L49.8,84.5z"/>
	<path d="M52.7,85.2h-2l5.1-11.6h0.8l4.6,11.6H59l-1.1-2.9h-4L52.7,85.2z M55.9,77.4l-1.4,3.5h2.8L55.9,77.4z"/>
	<path d="M66.1,84c1.1,0,2-0.6,2-1.5c0-1-1.2-1.5-2.5-2.3c-1.1-0.6-3-1.6-3-3.7c0-1.7,1.5-3.1,3.7-3.1c1.5,0,2.6,0.4,3.2,0.7
		l-0.6,1.3c-0.6-0.3-1.4-0.5-2.6-0.5c-1.1,0-1.8,0.7-1.8,1.4c0,1,1.2,1.6,2.4,2.3c1.1,0.6,3.3,1.5,3.3,3.6c0,2.3-2.6,3.3-4,3.3
		c-2,0-3.1-0.7-3.8-1l0.6-1.3C63.5,83.4,64.6,84,66.1,84"/>
	<polygon points="71.1,73.7 80.8,73.7 80.8,75.1 76.9,75.1 76.9,85.2 74.9,85.2 74.9,75.1 71.1,75.1 	"/>
	<polygon points="84.5,83.7 88.9,83.7 88.9,85.2 82.4,85.2 82.4,73.7 84.5,73.7 	"/>
	<polygon points="97.7,85.2 90.5,85.2 90.5,73.7 97.5,73.7 97.5,75.1 92.5,75.1 92.5,78.5 96.2,78.5 96.2,80 92.5,80 92.5,83.7 
		97.7,83.7 	"/>
	<path d="M26.7,95.8h-1l2.5-5.6h0.4l2.2,5.6h-1.1l-0.5-1.4h-1.9L26.7,95.8z M28.2,92l-0.7,1.7h1.3L28.2,92z"/>
	<path d="M36.9,93.9c0,0.8-0.4,2-2.3,2c-1.5,0-2.3-0.7-2.3-2v-3.7h1v3.7c0,0.8,0.5,1.3,1.3,1.3c0.9,0,1.3-0.6,1.3-1.3v-3.7h0.9V93.9
		z"/>
	<path d="M40.7,95.2c0.5,0,1-0.3,1-0.7c0-0.5-0.6-0.7-1.2-1.1C39.9,93,39,92.6,39,91.6c0-0.8,0.7-1.5,1.8-1.5c0.7,0,1.2,0.2,1.5,0.3
		L42.1,91c-0.3-0.1-0.7-0.3-1.3-0.3c-0.6,0-0.9,0.4-0.9,0.7c0,0.5,0.6,0.8,1.2,1.1c0.5,0.3,1.6,0.7,1.6,1.7c0,1.1-1.3,1.6-1.9,1.6
		c-0.9,0-1.5-0.3-1.8-0.5l0.3-0.6C39.4,94.9,40,95.2,40.7,95.2"/>
	<polygon points="44.2,90.2 48.8,90.2 48.8,90.9 47,90.9 47,95.8 46,95.8 46,90.9 44.2,90.9 	"/>
	<path d="M53.9,95.9l-1.5-2.6h-0.6v2.5h-1v-5.6h1.7c1.4,0,1.9,0.8,1.9,1.4c0,0.8-0.6,1.3-1.1,1.5l1.7,2.7L53.9,95.9z M52.2,92.6
		c0.8,0,1.2-0.4,1.2-0.9c0-0.5-0.4-0.8-1.2-0.8h-0.4v1.7H52.2z"/>
	<path d="M57.4,95.8h-1l2.5-5.6h0.4l2.2,5.6h-1l-0.5-1.4H58L57.4,95.8z M59,92l-0.7,1.7h1.3L59,92z"/>
	<polygon points="64.3,95 66.5,95 66.5,95.8 63.3,95.8 63.3,90.2 64.3,90.2 	"/>
	<rect x="68.3" y="90.2" width="1" height="5.6"/>
	<path d="M72,95.8h-1l2.5-5.6h0.4l2.2,5.6H75l-0.5-1.4h-1.9L72,95.8z M73.6,92l-0.7,1.7h1.3L73.6,92z"/>
	<path d="M46.3,5.2L46.3,5.2L46.3,5.2c-7.3,2.6-9.7,11.5-9.7,11.5l0,0l0,0C50-0.6,62.4,5,62.4,5l0,0l0,0c-0.2,0-3.9-0.3-5.1,3.1
		l18.4,20.6c0,0.6-0.2,1.1-0.6,1.6c-0.2-0.3-1-0.7-1.5-0.8c-0.7-0.2-1.4-0.3-1.4-0.9c0-0.4,0.3-0.5,0.5-0.5c0.2,0,0.2,0.1,0.2,0.1
		l0,0l0,0c0,0-0.1-0.3-0.5-0.3c-0.4,0-0.9,0.2-1,0.9c0,0.6,0.2,0.9,0.6,1.1c0.4,0.3,1.2,0.6,1.2,1.2c0,0.6-0.5,0.7-0.5,0.8
		c-0.2,0.1-1.9,0.8-3.5,1.2c-0.1-0.3-0.1-1.2-1.8-2.9c-3.6-3.7-14.7-0.2-14.7-8.6c0-3.8,3.6-5,5.4-5c1.5,0,2.4,0.6,2.5,0.7h0l0-0.1
		c0,0-1.3-2.8-4.9-2.8c-4,0-9.6,2.9-9.6,9.3c0,13.3,18.6,12.4,18.6,23.6c0,4.4-2.6,6.6-5.8,7.8c0,0,1.5-1.1,1.5-3.2
		c0-9.5-22-7.4-22-17.9c0-4.1,3.5-5.5,4.3-5.5l0,0l0,0c-0.1-0.1-0.7-0.4-1.7-0.4c-2.7,0-8,2.5-8,8.8c0,7.5,9.8,12.2,9.8,15.8
		c0,1.6-1,2.6-1,2.6c-8-2.6-18.3-10.6-18.3-24.9C23.8,13.2,40,5.2,46.3,5.2"/>
</g>
</svg>
